<svg xmlns="http://www.w3.org/2000/svg" xmlns:xlink="http://www.w3.org/1999/xlink" width="32px" height="32px" viewBox="0 0 32 32" version="1.1">

<title>Group</title>
<desc>Created with Sketch.</desc>
<g id="Home-/-Explore" stroke="none" stroke-width="1" fill="none" fill-rule="evenodd">
<g id="Home---Signed-in---dropdown-Copy" transform="translate(-15.000000, -11.000000)">
<g id="Navbar-Copy">
<g id="Group" transform="translate(15.000000, 11.000000)">
<path d="M2,0 L30,0 C31.1045695,-2.02906125e-16 32,0.8954305 32,2 L32,30 C32,31.1045695 31.1045695,32 30,32 L2,32 C0.8954305,32 1.3527075e-16,31.1045695 0,30 L0,2 C-1.3527075e-16,0.8954305 0.8954305,2.02906125e-16 2,0 Z" id="Rectangle-6" fill="#05A081"></path>
<path d="M13,21 L16.8633399,21 L16.8633399,17.2478896 L18.0299014,17.2478896 C19.7552084,17.2478896 21.1538462,15.8492519 21.1538462,14.1239448 C21.1538462,12.3986377 19.7552084,11 18.0299014,11 L13,11 L13,21 Z M18.8633399,23 L11,23 L11,9 L18.0299014,9 C20.8597779,9 23.1538462,11.2940682 23.1538462,14.1239448 C23.1538462,16.6700288 21.2968252,18.7823823 18.8633399,19.1804488 L18.8633399,23 Z" id="Combined-Shape" fill="#FFFFFF" fill-rule="nonzero"></path>
</g>
</g>
</g>
</g>
</svg>